# xmcd
#
# Track frame offsets: 
#        150
#        1629
#        9048
#        20267
#        35036
#        50261
#        69906
#        82684
#        98953
#        116758
#        135252
#        150061
#        161503
#        163933
#        182223
#
# Disc length: 2649 seconds
#
# Revision: 0
# Processed by: cddbd v1.5.2PL0 Copyright (c) Steve Scherf et al.
# Submitted via: ExactAudioCopy v0.99pb5
#
DISCID=9a0a570f
DTITLE=Chilly - Showbiz
DYEAR=1980
DGENRE=Disco
TTITLE0=There's No Business Like Showbusiness
TTITLE1=Showbiz
TTITLE2=Rock'N'Roll Sally
TTITLE3=Taxman
TTITLE4=Come Let's Go
TTITLE5=The Race
TTITLE6=Thank You
TTITLE7=Days
TTITLE8=Two Wrongs Don't Make A Right
TTITLE9=We Are The Popkings
TTITLE10=I hear You Knocking
TTITLE11=Gotta Move On
TTITLE12=When The Lights Go Down
TTITLE13=Simply A Love Song (Bonus)
TTITLE14=Springtime (Bonus)
EXTD=
EXTT0=
EXTT1=
EXTT2=
EXTT3=
EXTT4=
EXTT5=
EXTT6=
EXTT7=
EXTT8=
EXTT9=
EXTT10=
EXTT11=
EXTT12=
EXTT13=
EXTT14=
PLAYORDER=
